<svg width="32" height="32" viewBox="0 0 32 32" fill="none" xmlns="http://www.w3.org/2000/svg">
<path fill-rule="evenodd" clip-rule="evenodd" d="M6.66797 5.33398C4.45883 5.33398 2.66797 7.12485 2.66797 9.33398V22.6673C2.66797 24.8765 4.45883 26.6673 6.66797 26.6673H25.3346C27.5438 26.6673 29.3346 24.8765 29.3346 22.6673V9.33398C29.3346 7.12485 27.5438 5.33398 25.3346 5.33398H6.66797ZM6.43532 8.02088C6.51087 8.00758 6.58861 8.00065 6.66797 8.00065H25.3346C25.414 8.00065 25.4918 8.00759 25.5673 8.02088L16.0013 14.3982L6.43532 8.02088ZM5.33464 10.492V22.6673C5.33464 23.4037 5.93159 24.0007 6.66797 24.0007H25.3346C26.071 24.0007 26.668 23.4037 26.668 22.6673V10.492L16.7409 17.1101C16.2931 17.4087 15.7096 17.4087 15.2617 17.1101L5.33464 10.492Z" fill="#9F9F9F"/>
</svg>
